<?xml version="1.0" encoding="utf-8"?>
<!-- Generator: Adobe Illustrator 17.0.0, SVG Export Plug-In . SVG Version: 6.00 Build 0)  -->
<!DOCTYPE svg PUBLIC "-//W3C//DTD SVG 1.1//EN" "http://www.w3.org/Graphics/SVG/1.1/DTD/svg11.dtd">
<svg version="1.1" id="Background_xA0_Image_1_" xmlns="http://www.w3.org/2000/svg" xmlns:xlink="http://www.w3.org/1999/xlink"
	 x="0px" y="0px" width="83.301px" height="63.325px" viewBox="0 0 83.301 63.325" enable-background="new 0 0 83.301 63.325"
	 xml:space="preserve">
<g>
	<polygon fill="#006666" points="31.485,6 5.656,40.49 13.871,40.49 31.485,16.969 37.313,24.749 41.419,19.264 	"/>
	<polygon fill="#006666" points="49.101,40.49 57.316,40.49 45.527,24.749 41.419,30.233 	"/>
	<polygon fill="#009999" points="25.522,40.49 33.737,40.49 41.419,30.233 37.313,24.749 	"/>
	<polygon fill="#009999" points="68.969,40.49 77.184,40.49 51.353,6 41.419,19.264 45.527,24.749 51.353,16.969 	"/>
	<polygon opacity="0.7" fill="#009999" enable-background="new    " points="37.313,24.749 41.419,30.233 45.527,24.749 
		41.419,19.264 	"/>
</g>
<g enable-background="new    ">
	<path fill="#474747" d="M14.002,46.777l-3.42,4.56h-0.39l-3.345-4.575v7.635h-1.98V43.897h2.28l3.285,4.515l3.285-4.515h2.265
		v10.499h-1.98V46.777z"/>
	<path fill="#474747" d="M25.296,52.402h-5.49l-0.9,1.979h-2.145l4.71-10.5h2.16l4.709,10.5h-2.16L25.296,52.402z M22.552,46.086
		l-1.95,4.47h3.9L22.552,46.086z"/>
	<path fill="#474747" d="M35.557,46.416c-0.36-0.6-1.35-1.17-2.49-1.17c-1.47,0-2.175,0.615-2.175,1.396
		c0,0.914,1.08,1.17,2.34,1.319c2.19,0.271,4.23,0.84,4.23,3.345c0,2.34-2.07,3.345-4.41,3.345c-2.145,0-3.795-0.659-4.575-2.579
		l1.65-0.855c0.465,1.155,1.68,1.665,2.955,1.665c1.245,0,2.415-0.435,2.415-1.575c0-0.989-1.035-1.395-2.43-1.545
		c-2.145-0.255-4.125-0.824-4.125-3.18c0-2.16,2.13-3.045,4.065-3.06c1.635,0,3.33,0.465,4.125,2.085L35.557,46.416z"/>
	<path fill="#474747" d="M45.472,46.416c-0.36-0.6-1.35-1.17-2.49-1.17c-1.47,0-2.175,0.615-2.175,1.396
		c0,0.914,1.08,1.17,2.34,1.319c2.19,0.271,4.23,0.84,4.23,3.345c0,2.34-2.07,3.345-4.41,3.345c-2.145,0-3.795-0.659-4.575-2.579
		l1.65-0.855c0.465,1.155,1.68,1.665,2.955,1.665c1.245,0,2.415-0.435,2.415-1.575c0-0.989-1.035-1.395-2.431-1.545
		c-2.145-0.255-4.125-0.824-4.125-3.18c0-2.16,2.13-3.045,4.065-3.06c1.635,0,3.33,0.465,4.125,2.085L45.472,46.416z"/>
	<path fill="#474747" d="M52.867,48.216l2.79-4.335h2.385v0.091l-4.185,6.074v4.335h-1.98v-4.335l-4.035-6.074v-0.091h2.355
		L52.867,48.216z"/>
	<path fill="#474747" d="M64.611,54.426h-2.055l-4.364-10.545h2.22l3.165,8.175l3.18-8.175h2.22L64.611,54.426z"/>
	<path fill="#474747" d="M78.022,54.381h-7.859c0-3.495,0-7.005,0-10.5h7.859v1.92h-5.895v2.415h5.685v1.845h-5.685v2.37h5.895
		V54.381z"/>
</g>
</svg>
